<?xml version="1.0" encoding="UTF-8" standalone="no"?>
<svg width="56px" height="57px" viewBox="0 0 56 57" version="1.1" xmlns="http://www.w3.org/2000/svg" xmlns:xlink="http://www.w3.org/1999/xlink">
    <!-- Generator: sketchtool 3.6.1 (26313) - http://www.bohemiancoding.com/sketch -->
    <title>snapchat</title>
    <desc>Created with sketchtool.</desc>
    <defs></defs>
    <g id="Cocnepts" stroke="none" stroke-width="1" fill="none" fill-rule="evenodd">
        <g id="Snapchat" transform="translate(-1301.000000, -241.000000)" fill="#000000">
            <g id="Group-2" transform="translate(1258.000000, 113.000000)">
                <g id="snapchat" transform="translate(43.000000, 128.000000)">
                    <path d="M0,42.4104131 L0,42.4129169 C0.0335414114,43.6565479 0.0438869766,44.9073638 0.253738599,46.1433746 C0.476113801,47.4510161 0.793994905,48.7261081 1.40046283,49.9129135 C2.2203761,51.5192703 3.34640919,52.8757905 4.76778095,53.9838893 C5.78828929,54.7795562 6.90310561,55.4111693 8.13716819,55.8096015 C9.93664314,56.389832 11.7930731,56.6122356 13.6766194,56.6231217 C14.8517667,56.6305243 16.0261517,56.6599168 17.2017346,56.6550181 C25.7390039,56.6190938 34.2764911,56.7166335 42.8139782,56.6023292 C43.946872,56.5869798 45.0612527,56.4488348 46.1731288,56.2455909 C48.3042063,55.8556498 50.1876437,54.9466583 51.7990471,53.5095808 C53.6770395,51.8351857 54.9440989,49.7859813 55.5160453,47.3127623 C55.890337,45.6961725 55.9839916,44.0560688 56,42.4101954 L56,42.0818698 C56,41.9545021 55.9515392,14.1162825 55.9470743,13.7483314 C55.9345507,12.7375546 55.8600626,11.7343981 55.6704665,10.7398416 C55.4399238,9.52788918 55.1142018,8.34696221 54.5336523,7.25051158 C53.9206503,6.09211889 53.1527916,5.05053434 52.2030687,4.14034533 C50.7482644,2.74583257 49.0694514,1.75965839 47.1150108,1.23799523 C45.3497307,0.766952547 43.54884,0.662663458 41.7347724,0.664296377 C41.7318321,0.663860932 41.7249713,0.645463378 41.7245357,0.636536755 L14.2667522,0.636536755 C14.2662077,0.645898823 14.265881,0.655260892 14.2652276,0.664296377 C13.2356805,0.683129375 12.2046088,0.675400225 11.180289,0.802332457 C10.0581763,0.941783733 8.9468448,1.15177711 7.8847364,1.54389537 C6.21180406,2.16244506 4.75830659,3.12586723 3.51672987,4.41206304 C2.1100597,5.86927989 1.11851895,7.55456109 0.592419734,9.51700305 C0.123057776,11.2679276 0.0209089318,13.0536877 0.018404216,14.8520758 L0,42.4104131 Z M29.0827707,46.7734316 C28.9660688,46.7734316 28.8547212,46.7692537 28.7700358,46.76529 C28.7028339,46.7709677 28.6334465,46.7734316 28.5639499,46.7734316 C26.1122267,46.7734316 24.4729366,45.6371466 23.0262921,44.6338049 C21.9894155,43.9157396 21.0115454,43.2378465 19.8659437,43.0510189 C19.303305,42.9595333 18.7436168,42.9131478 18.2028324,42.9131478 C17.228459,42.9131478 16.4584232,43.061303 15.8962217,43.1690717 C15.5502683,43.2351684 15.2519573,43.2920523 15.0213946,43.2920523 C14.7799047,43.2920523 14.4865109,43.2395606 14.3642362,42.8302323 C14.2673124,42.5073546 14.1978158,42.1945469 14.1307231,41.8933087 C13.9628822,41.1405346 13.8411538,40.6810714 13.5536607,40.6374711 C10.4786532,40.1723302 8.66179705,39.4871526 8.29989006,38.6573549 C8.26197287,38.5701544 8.24077421,38.4824182 8.23607554,38.3956462 C8.22197953,38.1482924 8.40009197,37.9313623 8.64879375,37.8909758 C11.0907918,37.4967523 13.2621245,36.2313805 15.1028018,34.1288194 C16.5286848,32.5010405 17.2288961,30.9457859 17.3040749,30.774063 C17.307353,30.7663499 17.3111775,30.7582083 17.3151113,30.7508166 C17.6699156,30.0450708 17.740505,29.4352028 17.5255681,28.938674 C17.1293498,28.0226399 15.8171092,27.61449 14.9489476,27.3444255 C14.7330273,27.2774718 14.528799,27.2140532 14.3660938,27.1507418 C13.5964951,26.8527174 12.330804,26.223031 12.4994099,25.3539181 C12.622231,24.720161 13.4772799,24.278802 14.1683125,24.278802 C14.3601931,24.278802 14.5302195,24.3117968 14.6733651,24.3776793 C15.4542187,24.736337 16.1567248,24.9181297 16.7608866,24.9181297 C17.5122369,24.9181297 17.8751274,24.637674 17.9628723,24.5579723 C17.9412366,24.1650343 17.9147929,23.7495998 17.8892234,23.3566618 C17.8892234,23.3562333 17.888677,23.3515197 17.888677,23.3515197 C17.7123129,20.6010608 17.4923495,17.1781723 18.385425,15.2153034 C21.0584228,9.33976612 26.7270971,8.88287392 28.4002613,8.88287392 C28.444844,8.88287392 29.1295389,8.87623211 29.1295389,8.87623211 C29.1604627,8.87569648 29.194009,8.87526797 29.2287573,8.87526797 C30.9065109,8.87526797 36.5869865,9.3326958 39.2616234,15.2117683 C40.1546989,17.1759227 39.9345169,20.6017036 39.7576065,23.3550549 L39.7493018,23.4868198 C39.7250436,23.8606894 39.7026429,24.2145264 39.683739,24.5575438 C39.7663482,24.6321034 40.0984241,24.8892057 40.7740493,24.9152373 C41.3500191,24.8935979 42.0118762,24.7126621 42.7407166,24.3781078 C42.9660343,24.2744099 43.215501,24.2528775 43.3848717,24.2528775 C43.6408947,24.2528775 43.9013978,24.301727 44.1185202,24.3905344 L44.1301029,24.3949266 C44.7485793,24.6101426 45.1536485,25.0402533 45.1623902,25.4921106 C45.1701485,25.9133299 44.8508573,26.5429091 43.2804083,27.150956 C43.1195607,27.2134105 42.9143489,27.2772575 42.6975544,27.3446397 C41.828628,27.6150257 40.51748,28.0229613 40.1212618,28.9384597 C39.9059971,29.4349885 39.976805,30.0446423 40.3317186,30.7501739 C40.3356523,30.7578869 40.3390398,30.7657071 40.3428643,30.7738487 C40.4521357,31.024952 43.0970508,36.9373406 48.9981454,37.8904402 C49.2467379,37.9310409 49.4251781,38.1481853 49.4109729,38.3951106 C49.4057278,38.4838109 49.3838735,38.5725112 49.3456285,38.6591761 C48.9862348,39.4843673 47.1694879,40.1685808 44.0936063,40.6343644 C43.8049111,40.6780718 43.683292,41.1354997 43.5169809,41.8843101 C43.4481399,42.1935827 43.3780969,42.4967492 43.2824844,42.8153418 C43.1929911,43.1149731 42.9938986,43.2614142 42.6741703,43.2614142 L42.6259816,43.2614142 C42.4178195,43.2614142 42.1228959,43.2243487 41.750936,43.1530028 C41.1007709,43.0289509 40.3716026,42.9134691 39.4443252,42.9134691 C38.9036502,42.9134691 38.3440712,42.9599618 37.7807769,43.0513402 C36.6363772,43.2381679 35.6586164,43.9149897 34.6235973,44.6323051 C33.1741118,45.6370394 31.5342753,46.7734316 29.0827707,46.7734316 Z" id="Combined-Shape"></path>
                </g>
            </g>
        </g>
    </g>
</svg>