<?xml version="1.0" encoding="UTF-8" standalone="no"?>
<svg width="49px" height="55px" viewBox="0 0 49 55" version="1.1" xmlns="http://www.w3.org/2000/svg" xmlns:xlink="http://www.w3.org/1999/xlink">
    <!-- Generator: sketchtool 3.6.1 (26313) - http://www.bohemiancoding.com/sketch -->
    <title>vine</title>
    <desc>Created with sketchtool.</desc>
    <defs></defs>
    <g id="Cocnepts" stroke="none" stroke-width="1" fill="none" fill-rule="evenodd" opacity="0.4">
        <g id="Snapchat" transform="translate(-1308.000000, -613.000000)" fill="#000000">
            <g id="Group-2" transform="translate(1258.000000, 113.000000)">
                <g id="vine" transform="translate(50.000000, 500.021703)">
                    <path d="M22.9472304,54.9384723 C20.7757278,54.5955186 18.9471587,52.9948221 16.4328455,50.4795825 C8.89002872,43.3908892 1.11854866,24.4115362 0.0899939088,8.40494039 L9.23283935,8.40494039 C11.6327595,25.2118845 15.4042907,36.6452726 23.5185814,45.9062518 C27.5185302,42.1332694 30.8327349,36.8739084 33.1185077,32.6435314 C28.6614781,30.5855634 26.1471649,26.6981401 24.7757995,23.1537935 C20.5471874,12.1777999 24.2043256,0.515775988 36.2044177,0.172822285 C45.0043296,0.172822285 47.9758466,6.80412101 48.0899939,13.092466 C47.9757237,16.8654485 47.4042498,19.495129 46.2614248,22.6965219 C43.7471116,23.2681114 41.1186511,22.582204 39.5186224,21.438902 C38.2615272,20.5242359 37.8043235,20.9815075 38.6043378,18.4661449 C39.5186224,15.2648749 39.861433,8.29049957 35.5186736,8.17618167 C32.5471567,8.40481747 31.7472652,12.063482 31.7472652,14.5788446 C32.5472795,24.8688078 39.1758118,29.4421385 47.9758466,27.1555346 L47.9758466,33.7868334 C45.1187227,34.4728637 45.0043296,34.4728637 41.4614617,34.5871816 C39.4043522,39.3891481 28.2042744,55.9675793 22.8329602,54.9384723 L22.9472304,54.9384723 L22.9472304,54.9384723 Z" id="Shape"></path>
                </g>
            </g>
        </g>
    </g>
</svg>