<?xml version="1.0" encoding="UTF-8" standalone="no"?>
<svg width="99px" height="39px" viewBox="0 0 99 39" version="1.1" xmlns="http://www.w3.org/2000/svg" xmlns:xlink="http://www.w3.org/1999/xlink">
    <!-- Generator: sketchtool 3.6.1 (26313) - http://www.bohemiancoding.com/sketch -->
    <title>youtube</title>
    <desc>Created with sketchtool.</desc>
    <defs></defs>
    <g id="Cocnepts" stroke="none" stroke-width="1" fill="none" fill-rule="evenodd" opacity="0.4">
        <g id="Snapchat" transform="translate(-1258.000000, -872.000000)" fill="#000000">
            <g id="Group-2" transform="translate(1258.000000, 113.000000)">
                <g id="youtube" transform="translate(0.000000, 759.000000)">
                    <path d="M6.66684836,16.4842946 L3.9810897,6.66944908 L8.8817842e-16,6.66944908 C0.797205956,8.98756705 1.62755164,11.3146431 2.42558094,13.6333719 C3.63898892,17.1190998 4.39543919,19.747291 4.73836331,21.5395264 L4.73836331,31.662002 L8.52246718,31.662002 L8.52246718,21.5395264 L13.0737248,6.66944908 L9.24804193,6.66944908 L6.66684836,16.4842946 L6.66684836,16.4842946 Z M32.3896567,13.0378603 L32.3896567,27.272318 C31.6338239,28.329173 30.9179235,28.8520016 30.2357803,28.8520016 C29.7777934,28.8520016 29.5099998,28.5844795 29.4346635,28.062058 C29.3934961,27.9517102 29.3934961,27.5408581 29.3934961,26.7501002 L29.3934961,13.0378603 L25.9924546,13.0378603 L25.9924546,27.7652184 C25.9924546,29.079823 26.1068998,29.9697311 26.2952405,30.5342964 C26.6354887,31.4775461 27.3935857,31.9185301 28.4917251,31.9185301 C29.7362144,31.9185301 31.0317513,31.1705268 32.3896567,29.6307476 L32.3896567,31.6622056 L35.8020193,31.6622056 L35.8020193,13.0380639 L32.3896567,13.0380639 L32.3896567,13.0378603 Z M18.1447204,12.8139072 C16.4451259,12.8139072 15.1166552,13.448916 14.1737167,14.7225982 C13.4479362,15.6636084 13.1048062,17.1190998 13.1048062,19.1098391 L13.1048062,25.6323707 C13.1048062,27.6117088 13.4479362,29.0800266 14.1737167,30.011875 C15.116861,31.2818925 16.4453317,31.9185301 18.1447204,31.9185301 C19.854401,31.9185301 21.1820484,31.2818925 22.1258101,30.011875 C22.841093,29.0800266 23.1846347,27.6117088 23.1846347,25.6323707 L23.1846347,19.1098391 C23.1846347,17.1193034 22.841093,15.6636084 22.1258101,14.7225982 C21.1820484,13.448916 19.854401,12.8139072 18.1447204,12.8139072 L18.1447204,12.8139072 Z M19.7722721,26.2671759 C19.7722721,27.9905966 19.2447123,28.8520016 18.1447204,28.8520016 C17.0447285,28.8520016 16.5165513,27.9905966 16.5165513,26.2671759 L16.5165513,18.4326864 C16.5165513,16.7096728 17.0447285,15.8503038 18.1447204,15.8503038 C19.2449182,15.8503038 19.7722721,16.7096728 19.7722721,18.4326864 L19.7722721,26.2671759 L19.7722721,26.2671759 Z" id="Shape"></path>
                    <path d="M89.6463257,15.9576749 C88.5171049,15.9576749 87.9539354,16.8082894 87.9539354,18.5127759 L87.9539354,20.2197056 L91.3296591,20.2197056 L91.3296591,18.5127759 C91.3298649,16.8080858 90.7640195,15.9576749 89.6463257,15.9576749 L89.6463257,15.9576749 Z M77.1182742,15.9576749 C76.5633382,15.9576749 76.0001687,16.2188856 75.4351466,16.7698102 L75.4351466,28.0024823 C76.0001687,28.5607363 76.5631323,28.8241865 77.1182742,28.8241865 C78.0920881,28.8241865 78.587949,28.0024823 78.587949,26.337493 L78.587949,18.4730752 C78.587949,16.8080858 78.0920881,15.9576749 77.1182742,15.9576749 L77.1182742,15.9576749 Z M97.9001758,6.19556015 C97.2170035,3.25668497 94.7862766,1.08922634 91.8615414,0.765919533 C85.3605975,0.0476409279 78.7855524,0 72.2308851,0 C71.8010978,0 71.3708989,0.000407187418 70.9413175,0.000407187418 C70.5115302,0.000407187418 70.0819488,0 69.6519557,0 C63.0974942,0 56.5218316,0.0474373342 50.0212993,0.765919533 C47.0963583,1.08922634 44.6670723,3.25668497 43.9836941,6.19556015 C43.011321,10.3810396 43,14.9486645 43,19.2577253 L43,19.5669842 C43.0004117,23.7852422 43.0232596,28.2337648 43.9725789,32.3196869 C44.6559571,35.2583585 47.0850373,37.4258171 50.0099783,37.7489203 C56.5181265,38.4684205 63.1001701,38.5150435 69.6622475,38.5150435 C70.0848305,38.5150435 70.5078251,38.5150435 70.9299964,38.5146363 C71.3527852,38.5150435 71.7747507,38.5150435 72.1975395,38.5150435 C78.7594111,38.5150435 85.342278,38.4684205 91.8500145,37.7489203 C94.7749556,37.4258171 97.2054766,35.2583585 97.8888548,32.3196869 C98.8474368,28.1932496 98.8665796,23.695661 98.8669913,19.4401453 L98.8669913,19.2577253 C98.8669913,14.9486645 98.8725489,10.3810396 97.9001758,6.19556015 L97.9001758,6.19556015 Z M58.935474,10.3537581 L54.8924274,10.3537581 L54.8924274,31.6058874 L51.1363173,31.6058874 L51.1363173,10.3537581 L47.1653136,10.3537581 L47.1653136,6.87149127 L58.935474,6.87149127 L58.935474,10.3537581 L58.935474,10.3537581 Z M69.1367462,31.6058874 L65.7597875,31.6058874 L65.7597875,29.5956031 C64.4177315,31.1182804 63.1423666,31.8595651 61.9011707,31.8595651 C60.813529,31.8595651 60.0636655,31.422653 59.7258873,30.4895831 C59.542075,29.9313291 59.428659,29.0495647 59.428659,27.7488045 L59.428659,13.1749561 L62.8035593,13.1749561 L62.8035593,26.7444768 C62.8035593,27.527091 62.8035593,27.9330568 62.8348465,28.0434046 C62.9169753,28.5607363 63.1738597,28.8241865 63.625054,28.8241865 C64.3026687,28.8241865 65.0103357,28.3082801 65.7597875,27.2622156 L65.7597875,13.1749561 L69.1367462,13.1749561 L69.1367462,31.6058874 L69.1367462,31.6058874 Z M81.9624376,26.0736355 C81.9624376,27.7793436 81.847169,29.0074209 81.6236303,29.7888135 C81.1707893,31.1587956 80.2684007,31.8595651 78.9244922,31.8595651 C77.7242578,31.8595651 76.5633382,31.1999215 75.4353525,29.8193526 L75.4353525,31.6056838 L72.0596288,31.6056838 L72.0596288,6.87149127 L75.4351466,6.87149127 L75.4351466,14.9500896 C76.5252584,13.6230658 77.6826787,12.9522246 78.9242864,12.9522246 C80.2681949,12.9522246 81.1705834,13.6517726 81.6234244,15.0319343 C81.847169,15.7736262 81.9622318,16.9917273 81.9622318,18.7357111 L81.9622318,26.0736355 L81.9624376,26.0736355 Z M94.7039419,22.9987597 L87.9539354,22.9987597 L87.9539354,26.2670495 C87.9539354,27.9727576 88.5168991,28.8243901 89.6767895,28.8243901 C90.5091936,28.8243901 90.9924984,28.3775019 91.1853675,27.4839291 C91.2160372,27.3019164 91.2594687,26.5618532 91.2594687,25.2224102 L94.703736,25.2224102 L94.703736,25.7102207 C94.703736,26.7843811 94.6635979,27.5272946 94.631899,27.8603739 C94.5193063,28.6020658 94.2541884,29.2714819 93.8429265,29.8621072 C92.9096624,31.2001251 91.5243807,31.8599723 89.7611826,31.8599723 C87.9951028,31.8599723 86.6509884,31.2312749 85.6747045,29.9722514 C84.9571574,29.0499719 84.5891211,27.5969236 84.5891211,25.6385558 L84.5891211,19.184228 C84.5891211,17.2146625 84.9164017,15.7738298 85.6333313,14.8417778 C86.6098211,13.5803112 87.9535238,12.9526318 89.6765837,12.9526318 C91.3704148,12.9526318 92.714735,13.5803112 93.6603493,14.8417778 C94.3673987,15.7738298 94.703736,17.2146625 94.703736,19.184228 L94.703736,22.9987597 L94.7039419,22.9987597 Z" id="Shape"></path>
                </g>
            </g>
        </g>
    </g>
</svg>