<?xml version="1.0" encoding="UTF-8" standalone="no"?>
<svg width="51px" height="52px" viewBox="0 0 51 52" version="1.1" xmlns="http://www.w3.org/2000/svg" xmlns:xlink="http://www.w3.org/1999/xlink">
    <!-- Generator: sketchtool 3.6.1 (26313) - http://www.bohemiancoding.com/sketch -->
    <title>instagram</title>
    <desc>Created with sketchtool.</desc>
    <defs></defs>
    <g id="Cocnepts" stroke="none" stroke-width="1" fill="none" fill-rule="evenodd" opacity="0.4">
        <g id="Main" transform="translate(-1306.000000, -489.000000)" fill="#FFFFFF">
            <g id="Group-2" transform="translate(1258.000000, 113.000000)">
                <g id="instagram" transform="translate(48.000000, 376.000000)">
                    <path d="M45.6,0.636536755 L5.06666667,0.636536755 C2.28,0.636536755 0,2.91748834 0,5.70531806 L0,46.2555685 C0,49.0433982 2.28,51.3243498 5.06666667,51.3243498 L45.6,51.3243498 C48.3866667,51.3243498 50.6666667,49.0433982 50.6666667,46.2555685 L50.6666667,5.70531806 C50.6666667,2.91748834 48.3866667,0.636536755 45.6,0.636536755 L45.6,0.636536755 Z M25.3333333,15.8428807 C30.9066667,15.8428807 35.4666667,20.4047838 35.4666667,25.9804433 C35.4666667,31.5561027 30.9066667,36.1180059 25.3333333,36.1180059 C19.76,36.1180059 15.2,31.5561027 15.2,25.9804433 C15.2,20.4047838 19.76,15.8428807 25.3333333,15.8428807 L25.3333333,15.8428807 Z M6.33333333,46.2555685 C5.57333333,46.2555685 5.06666667,45.7486903 5.06666667,44.9883731 L5.06666667,23.4460526 L10.3866667,23.4460526 C10.1333333,24.2063698 10.1333333,25.2201261 10.1333333,25.9804433 C10.1333333,34.3439324 16.9733333,41.1867872 25.3333333,41.1867872 C33.6933333,41.1867872 40.5333333,34.3439324 40.5333333,25.9804433 C40.5333333,25.2201261 40.5333333,24.2063698 40.28,23.4460526 L45.6,23.4460526 L45.6,44.9883731 C45.6,45.7486903 45.0933333,46.2555685 44.3333333,46.2555685 L6.33333333,46.2555685 L6.33333333,46.2555685 Z M45.6,12.0412947 C45.6,12.8016119 45.0933333,13.30849 44.3333333,13.30849 L39.2666667,13.30849 C38.5066667,13.30849 38,12.8016119 38,12.0412947 L38,6.97251338 C38,6.21219619 38.5066667,5.70531806 39.2666667,5.70531806 L44.3333333,5.70531806 C45.0933333,5.70531806 45.6,6.21219619 45.6,6.97251338 L45.6,12.0412947 L45.6,12.0412947 Z" id="Shape"></path>
                </g>
            </g>
        </g>
    </g>
</svg>