<?xml version="1.0" encoding="utf-8"?>
<!-- Generator: Adobe Illustrator 19.1.0, SVG Export Plug-In . SVG Version: 6.00 Build 0)  -->
<svg version="1.1" id="Layer_1" xmlns="http://www.w3.org/2000/svg" xmlns:xlink="http://www.w3.org/1999/xlink" x="0px" y="0px"
	 viewBox="0 0 432.5 440.8" style="enable-background:new 0 0 432.5 440.8;" xml:space="preserve">
<style type="text/css">
	.st0{fill:#FFFFFF;}
</style>
<g>
	<path class="st0" d="M0,0v208.4h432.5V0H0z M403,178.9H29.5V29.5H403V178.9z"/>
	<polygon class="st0" points="148.1,145.9 130.4,145.9 95.5,97.1 95.5,145.9 74.4,145.9 74.4,62.5 94.8,62.5 127,108.4 127,62.5 
		148.1,62.5 	"/>
	<path class="st0" d="M206.1,148.3c-24,0-40.6-18.2-40.6-43.1c0-25,16.6-43.1,40.6-43.1c24.2,0,40.9,18.1,40.9,43.1
		C247,130.1,230.3,148.3,206.1,148.3z M206.1,81.3c-11.3,0-18.6,9.5-18.6,23.9c0,14.4,7.3,23.9,18.6,23.9c11.3,0,18.9-9.5,18.9-23.9
		C225,90.8,217.4,81.3,206.1,81.3z"/>
	<polygon class="st0" points="319.8,63.5 332.6,112.5 344.1,63.5 366.1,63.5 344.1,146.9 324.1,146.9 311.2,98 298.2,146.9 
		278.2,146.9 256.3,63.5 278.6,63.5 290.3,112.5 303.2,63.5 	"/>
	<path class="st0" d="M0,232.4v208.4h432.5V232.4H0z M403,411.3H29.5V261.9H403V411.3z"/>
	<polygon class="st0" points="68.1,294.9 141.5,294.9 141.5,313.7 115.7,313.7 115.7,378.3 93.8,378.3 93.8,313.7 68.1,313.7 	"/>
	<polygon class="st0" points="233.8,294.9 233.8,378.3 211.9,378.3 211.9,345.3 179.7,345.3 179.7,378.3 157.8,378.3 157.8,294.9 
		179.7,294.9 179.7,326.6 211.9,326.6 211.9,294.9 	"/>
	<rect x="255.8" y="294.9" class="st0" width="21.9" height="83.4"/>
	<path class="st0" d="M317.9,353.6c1.8,5.7,6.7,8.6,13.4,8.6c6.7,0,11.3-2.9,11.3-8c0-3.9-2.6-5.7-7.9-6.9l-16-3.4
		c-12.2-2.7-21.5-9.1-21.5-23.2c0-16.3,13.6-27,32.1-27c20.4,0,31.9,11.1,34.2,25.5h-21.3c-1.8-4.6-5.6-8.2-12.8-8.2
		c-6.2,0-10.5,2.7-10.5,7.3c0,3.7,2.6,5.7,6.9,6.7l16.3,3.8c14.3,3.4,22.1,11.1,22.1,24c0,17.1-14.4,26.9-32.6,26.9
		c-20,0-33.6-9.6-36.5-26.1H317.9z"/>
</g>
</svg>
