<?xml version="1.0" encoding="UTF-8" standalone="no"?>
<svg width="32px" height="57px" viewBox="0 0 32 57" version="1.1" xmlns="http://www.w3.org/2000/svg" xmlns:xlink="http://www.w3.org/1999/xlink">
    <!-- Generator: sketchtool 3.6.1 (26313) - http://www.bohemiancoding.com/sketch -->
    <title>tumblr</title>
    <desc>Created with sketchtool.</desc>
    <defs></defs>
    <g id="Cocnepts" stroke="none" stroke-width="1" fill="none" fill-rule="evenodd" opacity="0.4">
        <g id="Main" transform="translate(-1324.000000, -741.000000)" fill="#FFFFFF">
            <g id="Group-2" transform="translate(1258.000000, 113.000000)">
                <g id="tumblr" transform="translate(66.000000, 628.045075)">
                    <path d="M29.3648326,45.0153989 C28.3432412,45.5081262 26.3898649,45.9368268 24.9326606,45.9737118 C20.534209,46.0927179 19.6805315,42.8492778 19.6450907,40.4980361 L19.6450907,23.2021248 L30.6778649,23.2021248 L30.6778649,14.7895717 L19.6832842,14.7895717 L19.6832842,0.636536755 L11.6375208,0.636536755 C11.5050477,0.636536755 11.2738219,0.753803068 11.2411337,1.05131849 C10.770424,5.38286469 8.76681111,12.9853407 0.431327242,16.0252176 L0.431327242,23.2017768 L5.99175735,23.2017768 L5.99175735,41.3543933 C5.99175735,47.5702039 10.5254348,56.4006705 22.4937789,56.1925836 C26.5319724,56.1226414 31.0167896,54.4134066 32.0070692,52.9376605 L29.3648326,45.0153989" id="Shape"></path>
                </g>
            </g>
        </g>
    </g>
</svg>