<?xml version="1.0" encoding="UTF-8" standalone="no"?>
<svg width="58px" height="47px" viewBox="0 0 58 47" version="1.1" xmlns="http://www.w3.org/2000/svg" xmlns:xlink="http://www.w3.org/1999/xlink">
    <!-- Generator: sketchtool 3.6.1 (26313) - http://www.bohemiancoding.com/sketch -->
    <title>twitter</title>
    <desc>Created with sketchtool.</desc>
    <defs></defs>
    <g id="Cocnepts" stroke="none" stroke-width="1" fill="none" fill-rule="evenodd">
        <g id="Twitter" transform="translate(-1298.000000, -370.000000)" fill="#FFFFFF">
            <g id="Group-2" transform="translate(1258.000000, 113.000000)">
                <g id="twitter" transform="translate(40.000000, 257.000000)">
                    <path d="M57.4233272,5.52661498 C55.3105168,6.46400251 53.039965,7.09754283 50.6568307,7.38247838 C53.0893248,5.92375966 54.9572265,3.61401661 55.8368815,0.861951052 C53.5606586,2.2124531 51.0393168,3.19333743 48.3558228,3.72202316 C46.2066751,1.43140189 43.1448958,0 39.7565015,0 C33.2500368,0 27.975047,5.27698118 27.975047,11.7857413 C27.975047,12.7094704 28.0794378,13.6090346 28.2802378,14.471616 C18.4889293,13.9801232 9.80811181,9.28793234 3.99751551,2.15739918 C2.9834337,3.89811165 2.40245809,5.92270901 2.40245809,8.08262975 C2.40245809,12.1715389 4.48250202,15.7790415 7.64363108,17.8925237 C5.71229675,17.831376 3.89585528,17.3012194 2.30730915,16.4184655 C2.30646899,16.4676358 2.30646899,16.5170162 2.30646899,16.5666068 C2.30646899,22.277085 6.36741712,27.0407199 11.7568796,28.1233069 C10.7682129,28.3926929 9.72745576,28.5366316 8.65288192,28.5366316 C7.89379086,28.5366316 7.15570399,28.4628761 6.43652087,28.3252413 C7.93558918,33.0077663 12.286395,36.4152256 17.4416609,36.5104143 C13.4096985,39.6713917 8.32983764,41.5556226 2.81035926,41.5556226 C1.85950004,41.5556226 0.921663411,41.4999383 0,41.3910913 C5.21365752,44.7350915 11.4063199,46.6861436 18.0593938,46.6861436 C39.7289861,46.6861436 51.5787042,28.7270089 51.5787042,13.1524233 C51.5787042,12.6413884 51.5673619,12.1330853 51.5446774,11.6277239 C53.8463154,9.96602012 55.8438129,7.89015116 57.4233272,5.52661498" id="Fill-1"></path>
                </g>
            </g>
        </g>
    </g>
</svg>